<svg width="51" height="50" viewBox="0 0 51 50" fill="none" xmlns="http://www.w3.org/2000/svg">
<path d="M16.51 15.3287C14.1424 14.2063 12.505 11.7944 12.505 9C12.505 5.13401 15.639 2 19.505 2C23.371 2 26.505 5.13401 26.505 9C26.505 11.7944 24.8676 14.2063 22.5 15.3287" stroke="#991850" stroke-width="2" stroke-miterlimit="10" stroke-linecap="round" stroke-linejoin="round"/>
<path d="M26.636 16C28.406 14.196 29.5 11.727 29.5 9C29.5 6.273 28.406 3.804 26.636 2" stroke="#991850" stroke-width="2" stroke-miterlimit="10" stroke-linecap="round" stroke-linejoin="round"/>
<path d="M16.5 25C16.5 23.343 15.157 22 13.5 22C11.843 22 10.5 23.343 10.5 25V32C10.5 40.284 17.216 47 25.5 47C33.784 47 40.5 40.284 40.5 32V25C40.5 23.343 39.157 22 37.5 22C35.843 22 34.5 23.343 34.5 25V23C34.5 21.343 33.157 20 31.5 20C29.843 20 28.5 21.343 28.5 23V21C28.5 19.343 27.157 18 25.5 18C23.843 18 22.5 19.343 22.5 21V9C22.5 7.343 21.157 6 19.5 6C17.843 6 16.5 7.343 16.5 9V31V25Z" stroke="white" stroke-width="4" stroke-miterlimit="10" stroke-linecap="round" stroke-linejoin="round"/>
<path d="M12.364 2C10.594 3.804 9.5 6.273 9.5 9C9.5 11.727 10.594 14.196 12.364 16" stroke="#991850" stroke-width="2" stroke-miterlimit="10" stroke-linecap="round" stroke-linejoin="round"/>
</svg>
