<svg width="209" height="209" viewBox="0 0 209 209" fill="none" xmlns="http://www.w3.org/2000/svg">
<circle opacity="0.1" cx="104.5" cy="104.5" r="104.5" fill="#FFCDD9"/>
<circle opacity="0.2" cx="91" cy="104.5" r="91" fill="#FFCDD9"/>
<circle cx="75" cy="104.5" r="75" fill="#FFCDD9"/>
<path d="M152.192 100.826L166.211 71.0651C166.995 69.3994 166.404 67.4097 164.835 66.4433L136.82 49.1952C133.608 47.2169 129.759 46.6938 126.2 47.7569L63.8707 66.3068C60.5109 67.3074 58.5951 70.8434 59.5956 74.2089L73.8591 122.121C74.8596 125.481 78.3956 127.397 81.7611 126.396L144.091 107.847C147.649 106.789 150.588 104.242 152.197 100.831L152.192 100.826ZM147.234 81.2582C144.267 82.0541 141.225 80.4509 140.157 77.6426C140.088 77.455 140.026 77.2617 139.969 77.0627C139.122 73.9019 140.998 70.6501 144.165 69.803C147.325 68.956 150.577 70.832 151.424 73.9985C152.271 77.1593 150.395 80.4111 147.229 81.2582H147.234Z" fill="#991850"/>
<g style="mix-blend-mode:multiply" opacity="0.58">
<path d="M154.255 73.2311C153.204 69.3085 149.173 66.9777 145.245 68.0294C141.322 69.0811 138.991 73.1117 140.043 77.04C139.202 73.8905 141.066 70.6558 144.216 69.8144C147.365 68.9731 150.6 70.8377 151.441 73.9872C152.283 77.1366 150.418 80.3713 147.268 81.2127C144.318 82.0029 141.288 80.4111 140.231 77.6142C141.504 81.1843 145.324 83.2422 149.054 82.2417C152.976 81.19 155.307 77.1594 154.255 73.2311Z" fill="#222222"/>
</g>
<path opacity="0.32" d="M140.157 77.6369C140.088 77.4493 140.026 77.256 139.969 77.057C140.02 77.256 140.083 77.4493 140.157 77.6369Z" fill="url(#paint0_linear_9_582)"/>
<path d="M98.1053 79.8654C100.408 87.5855 97.4743 92.6337 92.7217 94.0492C88.1396 95.4193 83.08 92.935 80.8231 85.573C78.6401 78.2452 81.4314 72.9355 86.2977 71.4858C91.4482 69.9509 96.0189 72.8786 98.1053 79.8654ZM84.7343 84.22C86.0135 88.9328 88.8275 91.9572 91.9428 91.0306C95.223 90.0528 95.6551 86.1188 94.2111 81.2752C92.8808 76.8239 90.4704 73.4926 87.0197 74.5215C83.9044 75.4482 83.3586 79.6039 84.7343 84.2257V84.22ZM96.9683 109.535L107.292 65.2153L110.464 64.2716L100.14 108.591L96.9683 109.535ZM126.564 87.8811C128.866 95.6012 125.933 100.649 121.237 102.048C116.655 103.418 111.596 100.934 109.356 93.6286C107.156 86.2439 109.947 80.9341 114.813 79.4845C119.964 77.9496 124.478 80.8943 126.564 87.8811ZM113.193 92.2358C114.529 96.9315 117.4 99.9388 120.458 99.0292C123.739 98.0514 124.171 94.1175 122.727 89.2682C121.396 84.8169 118.986 81.4856 115.535 82.5145C112.42 83.4412 111.817 87.6139 113.193 92.2358Z" fill="#FAF7EE"/>
<g opacity="0.2">
<path d="M91.579 175.986H100.084C100.084 175.986 90.1407 168.829 91.579 175.986Z" fill="#FAF7EE"/>
<path d="M103.08 175.986H136.621C136.621 175.986 111.465 163.82 105.354 166.089C99.2422 168.357 103.08 175.986 103.08 175.986Z" fill="#FAF7EE"/>
</g>
<path opacity="0.2" d="M75.593 175.77H34.8719C34.8719 175.77 31.9499 171.239 34.8719 170.762C37.7939 170.284 39.0219 176.248 41.0173 172.672C43.0127 169.096 36.1794 159.79 44.6272 158.357C53.0807 156.924 62.836 167.658 62.836 167.658C62.836 167.658 59.4535 160.5 64.2175 159.665C68.9814 158.829 75.5873 175.764 75.5873 175.764L75.593 175.77Z" fill="#FAF7EE"/>
<g opacity="0.5">
<path d="M149.059 155.304H130.208" stroke="#FAF7EE" stroke-miterlimit="10"/>
<path d="M81.8748 152.251H71.9944" stroke="#3A60E5" stroke-width="0.5" stroke-miterlimit="10"/>
<path d="M76.9801 155.304H38.5387" stroke="#FAF7EE" stroke-miterlimit="10"/>
<path d="M65.7353 108.08H48.8056" stroke="#FAF7EE" stroke-miterlimit="10"/>
</g>
<g style="mix-blend-mode:multiply">
<path d="M87.0992 175.577C87.0992 176.196 75.411 176.697 60.9884 176.697C46.5658 176.697 34.8776 176.196 34.8776 175.577C34.8776 174.957 46.5658 174.457 60.9884 174.457C75.411 174.457 87.0992 174.957 87.0992 175.577Z" fill="#FFCDD9"/>
</g>
<g style="mix-blend-mode:multiply">
<path d="M159.161 175.577C159.161 176.196 147.473 176.697 133.05 176.697C118.628 176.697 106.94 176.196 106.94 175.577C106.94 174.957 118.628 174.457 133.05 174.457C147.473 174.457 159.161 174.957 159.161 175.577Z" fill="#FFCDD9"/>
</g>
<path d="M59.3284 74.6011L167.882 79.331V114.748L98.7704 125.97H73.6146C72.3355 125.97 71.1076 125.464 70.2037 124.566C69.5328 123.895 69.0724 123.042 68.8848 122.116L59.3284 74.6011Z" stroke="#FAF7EE" stroke-width="2" stroke-miterlimit="10"/>
<path d="M112.488 129.756H77.0426C74.3934 129.756 71.8295 130.683 69.8 132.377C67.4237 134.355 66.0536 137.283 66.0536 140.37C66.0536 143.457 67.4237 146.379 69.8 148.363C71.8295 150.057 74.3934 150.984 77.0426 150.984H156.529C159.463 150.984 162.282 152.115 164.397 154.133C166.626 156.265 167.888 159.21 167.888 162.291V165.043" stroke="#FAF7EE" stroke-width="2" stroke-miterlimit="10"/>
<path d="M162.402 80.6215C162.39 80.7465 162.385 80.8716 162.39 80.9967C162.419 83.0489 164.153 84.7715 166.211 84.7999C166.336 84.7999 166.466 84.7999 166.586 84.7885C169.28 84.5668 170.383 81.1786 168.467 79.2741L167.933 78.7454C166.023 76.841 162.618 77.9382 162.396 80.6215H162.402Z" fill="#991850"/>
<path d="M166.586 109.097C166.461 109.086 166.336 109.08 166.211 109.086C164.153 109.114 162.419 110.842 162.39 112.889C162.39 113.014 162.39 113.139 162.402 113.264C162.623 115.948 166.029 117.045 167.939 115.14L168.473 114.612C170.383 112.707 169.286 109.319 166.591 109.097H166.586Z" fill="#991850"/>
<path d="M77.3212 166.253V155.304H87.0992L77.3212 166.253Z" stroke="#FAF7EE" stroke-width="2" stroke-miterlimit="10"/>
<path d="M82.2102 150.978V155.304" stroke="#FAF7EE" stroke-width="2" stroke-miterlimit="10"/>
<path d="M149.383 166.253V155.304H159.161L149.383 166.253Z" stroke="#FAF7EE" stroke-width="2" stroke-miterlimit="10"/>
<path d="M154.272 150.978V155.304" stroke="#FAF7EE" stroke-width="2" stroke-miterlimit="10"/>
<path d="M52.7112 56.5515L54.9567 57.9727L59.3284 74.6011L86.1442 129.756" stroke="#FAF7EE" stroke-width="2" stroke-miterlimit="10"/>
<path d="M74.2968 75.2492L84.308 125.97" stroke="#FAF7EE" stroke-width="2" stroke-miterlimit="10"/>
<path d="M90.0895 75.9371L97.622 125.97" stroke="#FAF7EE" stroke-width="2" stroke-miterlimit="10"/>
<path d="M105.109 76.5966L111.789 123.855" stroke="#FAF7EE" stroke-width="2" stroke-miterlimit="10"/>
<path d="M120.504 77.2673L125.865 121.57" stroke="#FAF7EE" stroke-width="2" stroke-miterlimit="10"/>
<path d="M137.024 77.9836L140.407 119.211" stroke="#FAF7EE" stroke-width="2" stroke-miterlimit="10"/>
<path d="M152.817 78.6715L155.227 116.806" stroke="#FAF7EE" stroke-width="2" stroke-miterlimit="10"/>
<path d="M167.888 91.7355H62.6313" stroke="#FAF7EE" stroke-width="2" stroke-miterlimit="10"/>
<path d="M167.888 102.281L94.916 108.011H66.0536" stroke="#FAF7EE" stroke-width="2" stroke-miterlimit="10"/>
<path d="M39.2985 46.6843L37.785 49.1705L51.9548 57.796L53.4682 55.3098L39.2985 46.6843Z" fill="#991850"/>
<path d="M77.3212 175.986C82.7215 175.986 87.0993 171.629 87.0993 166.253C87.0993 160.878 82.7215 156.521 77.3212 156.521C71.9209 156.521 67.5431 160.878 67.5431 166.253C67.5431 171.629 71.9209 175.986 77.3212 175.986Z" fill="#991850"/>
<path d="M80.8515 166.253C80.8515 168.192 79.2711 169.767 77.3212 169.767C75.3712 169.767 73.7908 168.192 73.7908 166.253C73.7908 164.315 75.3712 162.74 77.3212 162.74C79.2711 162.74 80.8515 164.315 80.8515 166.253Z" stroke="#222222" stroke-width="2" stroke-miterlimit="10"/>
<path d="M149.383 175.986C154.784 175.986 159.161 171.629 159.161 166.253C159.161 160.878 154.784 156.521 149.383 156.521C143.983 156.521 139.605 160.878 139.605 166.253C139.605 171.629 143.983 175.986 149.383 175.986Z" fill="#991850"/>
<path d="M152.914 166.253C152.914 168.192 151.333 169.767 149.383 169.767C147.433 169.767 145.853 168.192 145.853 166.253C145.853 164.315 147.433 162.74 149.383 162.74C151.333 162.74 152.914 164.315 152.914 166.253Z" stroke="#222222" stroke-width="2" stroke-miterlimit="10"/>
<path d="M40.6601 131.746C43.468 130.575 44.7949 127.349 43.6238 124.541C42.4526 121.733 39.227 120.406 36.419 121.578C33.6111 122.749 32.2842 125.974 33.4554 128.782C34.6265 131.59 37.8521 132.917 40.6601 131.746Z" stroke="#991850" stroke-width="2" stroke-linecap="round" stroke-linejoin="round"/>
<path d="M27.8169 34.7043L28.5844 35.4775" stroke="#991850" stroke-width="2" stroke-linecap="round" stroke-linejoin="round"/>
<path d="M31.0118 37.8993L31.7793 38.6668" stroke="#991850" stroke-width="2" stroke-linecap="round" stroke-linejoin="round"/>
<path d="M31.7793 34.7043L31.0118 35.4775" stroke="#991850" stroke-width="2" stroke-linecap="round" stroke-linejoin="round"/>
<path d="M28.5844 37.8993L27.8169 38.6668" stroke="#991850" stroke-width="2" stroke-linecap="round" stroke-linejoin="round"/>
<path d="M153.249 130.814L154.016 131.581" stroke="#991850" stroke-width="2" stroke-linecap="round" stroke-linejoin="round"/>
<path d="M156.438 134.003L157.211 134.776" stroke="#991850" stroke-width="2" stroke-linecap="round" stroke-linejoin="round"/>
<path d="M157.211 130.814L156.438 131.581" stroke="#991850" stroke-width="2" stroke-linecap="round" stroke-linejoin="round"/>
<path d="M154.016 134.003L153.249 134.776" stroke="#991850" stroke-width="2" stroke-linecap="round" stroke-linejoin="round"/>
<path d="M137.797 45.4602L150.799 40.4518" stroke="#991850" stroke-width="2" stroke-linecap="round" stroke-linejoin="round"/>
<path d="M138.269 33.3627L128.412 43.2147" stroke="#991850" stroke-width="2" stroke-linecap="round" stroke-linejoin="round"/>
<path d="M89.6404 39.474L85.7292 37.3251L84.2738 41.5433L80.3569 39.3944L78.9016 43.6126L74.9847 41.4694L73.5237 45.6819L69.6124 43.5387L68.1514 47.7569L64.2345 45.608L62.7678 49.8262" stroke="#991850" stroke-width="2" stroke-linecap="round" stroke-linejoin="round"/>
<defs>
<linearGradient id="paint0_linear_9_582" x1="139.934" y1="77.0248" x2="140.176" y2="77.5829" gradientUnits="userSpaceOnUse">
<stop stop-color="#FF7CAD"/>
<stop offset="1" stop-color="#3A60E5"/>
</linearGradient>
</defs>
</svg>
