<svg width="456" height="156" viewBox="0 0 456 156" fill="none" xmlns="http://www.w3.org/2000/svg">
<path d="M153.681 69.33C152.958 63.6789 151.599 58.115 149.934 52.6613C148.183 46.9062 146.1 41.2557 143.62 35.772C141.16 30.3182 138.381 25.0234 135.255 19.9063C132.242 14.9688 128.903 10.1115 124.483 6.29221C120.751 3.06407 115.109 -0.33901 109.967 1.19201C107.491 1.94023 105.671 3.8628 104.884 6.3262C104.012 9.05246 104.452 11.8702 105.392 14.5187C106.384 17.2814 107.81 19.9371 109.198 22.5329C110.591 25.1044 112.045 27.6381 113.612 30.1207C116.728 35.0559 120.144 39.8022 123.845 44.3054C130.442 52.3349 137.866 59.6538 145.846 66.3289C133.507 61.6949 121.044 57.4945 108.327 54.0828C104.178 45.6577 99.4018 37.6291 93.769 30.0995C87.8473 22.1457 81.199 14.7969 73.8975 8.06994C71.0337 5.42274 66.9274 1.23829 62.5755 2.7938C60.5653 3.51924 59.3515 5.37341 58.9915 7.4205C58.5875 9.66278 59.2933 11.8737 60.3635 13.8336C62.6439 18.0414 65.7908 21.9322 68.9552 25.5192C72.1518 29.1904 75.6396 32.594 79.2991 35.8056C86.0364 41.7384 93.335 47.0031 100.715 52.1324C91.984 50.0315 83.0724 48.2746 74.0694 47.0355C73.9395 46.9292 73.8097 46.823 73.62 46.7545C73.0943 46.5844 72.5685 46.4144 72.0184 46.2388C70.9041 44.4741 69.7655 42.7039 68.5072 41.0092C66.8979 38.8249 65.1878 36.7461 63.3936 34.6996C59.7917 30.5522 55.9041 26.6479 51.7795 22.9979C43.5871 15.7875 34.4713 9.59943 24.7407 4.65719C22.1192 3.32126 19.2616 2.00891 16.2361 2.12033C13.9135 2.18539 11.6231 3.1296 10.092 4.91211C6.4223 9.23735 10.7096 14.4371 13.6607 17.7195C20.7275 25.5987 29.5946 31.5255 39.0222 36.2197C46.7436 40.067 54.8397 43.05 62.9909 45.7891C48.174 44.5187 33.2592 44.8161 18.659 47.4668C15.2872 48.0898 11.9854 48.8568 8.69385 49.8056C7.68088 50.0896 7.92235 51.6315 8.99198 51.4372C22.8075 48.9682 36.6685 47.4327 50.7237 47.7617C54.4456 47.8589 58.1699 48.0592 61.8722 48.3572C56.5683 48.3385 51.2446 48.5205 45.9768 49.0228C34.1574 50.1477 22.3104 52.9845 11.7718 58.6556C7.07204 61.1839 1.75901 64.4968 0.870556 70.2453C0.506664 72.6505 1.08879 75.2951 2.81617 77.0701C4.71669 78.9868 7.43276 79.6774 10.0528 79.8847C15.7786 80.3064 21.6998 79.1824 27.1212 77.4326C32.6757 75.6615 37.9642 73.1381 43.0395 70.31C53.7173 64.3626 63.5918 56.9772 74.8197 52.0003C76.0995 51.4433 77.3738 50.9106 78.6615 50.4322C78.789 50.4353 78.9409 50.444 79.0684 50.4472C83.4475 51.1545 87.7856 51.9294 92.1151 52.8563C97.3529 53.9627 102.533 55.21 107.699 56.6335C103.356 56.4473 98.9794 56.6381 94.7237 57.087C85.6072 58.0532 76.6754 60.4716 68.3141 64.2242C64.8603 65.7774 60.0652 68.3867 60.6597 72.9061C61.2967 77.6915 66.8469 78.6633 70.7672 78.6771C79.221 78.7151 87.623 77.2797 95.6009 74.5432C104.638 71.4306 113.085 66.6203 120.334 60.4113C120.34 60.3869 120.345 60.3625 120.399 60.3491C131.015 63.6449 141.49 67.4476 151.867 71.4588C136.999 70.0743 121.475 73.9779 108.91 81.8069C107.115 82.94 105.242 84.081 103.647 85.4645C102.053 86.848 100.689 88.7966 101.4 90.9831C102.466 94.3266 106.905 94.7655 109.838 94.8383C117.974 95.0352 126.097 93.3573 133.561 90.1713C141.908 86.5951 149.573 81.0441 155.279 73.9479C155.462 73.7071 155.512 73.4875 155.458 73.2702C155.982 73.3372 156.481 73.3986 157.004 73.4656C162.956 75.8361 168.873 78.2499 174.754 80.707C183.375 84.3213 191.984 87.9845 200.628 91.6043C200.628 91.6043 200.628 91.6043 200.623 91.6287C200.757 91.9412 201.075 92.0129 201.357 91.8972C201.804 92.0751 202.27 92.2829 202.717 92.4609C195.69 91.104 188.469 90.601 181.396 90.6955C176.149 90.7665 170.892 91.22 165.71 92.0238C165.631 92.0317 165.552 92.0395 165.468 92.0718C165.211 91.9623 164.902 91.9694 164.749 92.1913C160.27 92.9488 155.762 94.0588 151.745 96.1771C148.483 97.9019 144.045 101.541 146.203 105.721C148.02 109.26 152.975 109.687 156.449 110.087C165.509 111.185 174.782 110.665 183.669 108.672C193.636 106.436 203.081 102.313 211.493 96.5207C211.643 96.4263 211.725 96.2909 211.777 96.1744C219.641 99.3873 227.552 102.508 235.532 105.439C233.102 105.3 230.668 105.289 228.239 105.484C228.166 105.468 228.082 105.5 227.979 105.502C227.665 105.303 227.222 105.331 226.901 105.618C223.462 105.969 220.055 106.635 216.734 107.603C216.685 107.592 216.649 107.635 216.625 107.63C210.892 109.284 205.378 111.782 200.321 114.87C198.214 116.138 196.183 117.525 194.208 119.003C192.328 120.399 190.044 121.883 189.081 124.101C187.363 128.073 191.31 131.375 194.656 132.567C204.422 136.106 215.251 132.553 224.474 129.072C236.838 124.403 249.188 119.679 261.283 114.385C261.397 114.334 261.468 114.248 261.509 114.18C277.076 118.825 292.954 122.208 308.967 124.543C308.495 124.59 307.998 124.632 307.531 124.655C304.812 124.887 302.087 125.143 299.395 125.483C294.221 126.135 289.079 127.102 284.09 128.642C279.6 130.012 275.223 131.793 271.17 134.185C269.128 135.391 267.132 136.735 265.303 138.245C263.48 139.73 261.653 141.574 260.924 143.897C259.505 148.474 263.279 152.199 267.453 153.245C269.833 153.834 272.335 153.886 274.774 153.873C276.909 153.842 279.036 153.733 281.143 153.491C289.562 152.547 297.795 149.817 305.165 145.686C308.544 143.783 311.764 141.561 314.759 139.084C315.02 139.066 315.27 138.866 315.331 138.597C319.451 135.118 323.122 131.126 326.201 126.693C334.394 127.544 342.618 128.145 350.861 128.546C362.629 129.127 374.416 129.278 386.205 129.197C386.091 129.248 385.977 129.299 385.87 129.429C385.859 129.478 385.799 129.516 385.794 129.54C383.902 129.856 381.999 130.221 380.114 130.616C375.138 131.646 370.233 132.923 365.358 134.411C357.091 136.954 348.152 139.858 342.317 146.618C340.993 148.165 339.377 150.21 340.039 152.386C340.597 154.23 342.488 154.939 344.221 155.1C346.228 155.297 348.345 155.006 350.337 154.815C352.511 154.614 354.683 154.309 356.816 153.945C365.218 152.51 373.429 149.877 381.131 146.206C389.866 142.051 397.937 136.515 404.933 129.838C405.225 129.571 405.278 129.224 405.222 128.903C417.716 128.649 430.252 128.327 442.668 127.285C446.665 126.958 450.684 126.763 454.708 126.544C455.278 126.519 455.354 125.613 454.785 125.638C442.059 126.122 429.284 126.595 416.542 126.922C414.2 124.803 411.776 122.819 409.404 120.719C407.013 118.589 404.723 116.354 402.463 114.099C397.924 109.561 393.51 104.922 388.93 100.451C379.918 91.6451 369.746 83.3209 357.598 79.3197C354.639 78.3434 351.589 77.6544 348.522 77.2692C348.33 77.0976 348.069 77.1156 347.865 77.2234C345.584 76.9902 343.243 77.0254 341.056 77.7366C338.617 78.5446 336.576 80.3145 335.827 82.8377C335.022 85.6049 335.654 88.5942 336.763 91.1783C339.094 96.5258 343.357 100.925 347.714 104.679C352.499 108.812 357.698 112.474 363.148 115.705C371.741 120.801 380.963 124.705 390.568 127.362C381.151 127.389 371.713 127.282 362.294 126.975C355.499 126.747 348.731 126.398 341.947 125.891C341.85 125.869 341.752 125.847 341.655 125.825C338.872 120.888 335.519 116.207 332.223 111.616C328.651 106.655 324.905 101.782 320.933 97.1156C313.079 87.9557 303.999 79.3396 293.373 73.4772C288.285 70.6865 282.052 68.7653 276.642 71.8256C274.378 73.109 272.561 75.1347 271.952 77.7154C271.258 80.5589 271.902 83.4994 273.054 86.1189C275.492 91.6703 279.961 96.2955 284.516 100.197C289.46 104.417 294.86 108.098 300.434 111.46C309.915 117.167 320.098 121.698 330.67 124.959C310.315 123.001 290.117 119.669 270.364 114.257C264.282 112.576 258.262 110.728 252.295 108.765C250.946 103.613 249.162 98.569 247.259 93.6001C245.213 88.24 242.806 83.0034 240.22 77.8802C239.508 76.4886 238.743 75.1104 238.001 73.7377C238.013 73.4583 237.862 73.219 237.64 73.0663C235.74 69.5597 233.774 66.1153 231.665 62.741C228.643 57.9554 225.551 53.0257 221.819 48.772C220.001 46.7199 217.937 44.8434 215.511 43.5515C213.564 42.5218 210.859 41.7825 209.016 43.4689C207.078 45.2365 207.411 48.4146 207.495 50.7671C207.575 53.4778 207.813 56.1727 208.213 58.8275C209.852 69.5064 214.092 79.7984 220.521 88.4568C224.496 93.7911 229.276 98.5124 234.62 102.438C223.346 98.1985 212.203 93.604 201.083 88.9119C200.992 88.6348 200.925 88.3633 200.833 88.0862C200.883 87.8666 200.805 87.6439 200.643 87.4534C199.275 83.067 197.738 78.7451 196.177 74.4177C194.138 68.8026 191.941 63.2032 189.51 57.7305C187.088 52.3366 184.412 47.0394 181.348 41.9877C178.478 37.2107 175.337 32.5007 171.292 28.6121C169.38 26.7442 167.243 25.0817 164.895 23.782C164.391 23.5144 163.888 23.2467 163.354 22.998C163.254 22.8728 163.108 22.8397 162.98 22.8366C161.306 22.0737 159.472 21.4541 157.681 21.4342C155.12 21.4198 153.294 23.033 153.147 25.6153C152.988 28.2464 153.824 31.1279 154.458 33.656C157.186 44.1706 162.54 53.8426 169.339 62.2255C176.838 71.4845 186.068 79.2113 195.751 86.066C196.46 86.5596 197.193 87.0587 197.902 87.5522C193.173 85.5605 188.448 83.5443 183.718 81.5525C173.749 77.3257 163.739 73.1665 153.655 69.2214L153.681 69.33ZM64.9783 17.697C64.7462 17.3625 64.4896 17.0224 64.2386 16.658C64.8784 16.7769 65.5648 16.8037 66.1747 16.9415C67.1262 17.1565 68.0746 17.499 68.982 17.9092C70.9622 18.7925 72.7887 20.1283 74.2155 21.7584C75.5423 23.2635 76.548 25.0549 77.1979 26.9455C77.5417 27.9207 77.7525 28.9171 77.909 29.9269C78.0309 30.7494 78.0497 31.5743 78.1716 32.3967C73.3309 27.9438 68.8579 23.1124 65.0027 17.7025L64.9783 17.697ZM79.0019 33.1485C79.0019 33.1485 79.0672 33.0863 79.1026 33.043C79.8285 31.0786 79.2432 28.5615 78.6288 26.6277C77.9608 24.4766 76.8473 22.4813 75.3584 20.7858C73.8317 19.0305 71.9618 17.6592 69.8818 16.6507C68.8201 16.1288 67.7009 15.7477 66.5353 15.4588C65.535 15.2328 64.1963 14.8021 63.2289 15.2246C62.2681 13.8023 61.3459 12.2092 60.8848 10.6177C61.1099 10.6429 61.3594 10.6737 61.5845 10.6989C62.3086 10.7855 63.0028 10.8911 63.7103 11.0509C65.0034 11.3431 66.28 11.7084 67.529 12.1957C70.1002 13.1869 72.5289 14.5819 74.6498 16.3176C78.6752 19.6119 81.5403 24.1826 82.9525 29.1688C83.3357 30.5375 83.5913 31.9031 83.7628 33.3009C83.9342 34.6988 83.9238 36.1068 84.0708 37.4991C82.3394 36.0822 80.638 34.6464 78.9775 33.143L79.0019 33.1485ZM84.5713 37.8943C84.7343 37.8541 84.8649 37.7298 84.9035 37.559C85.428 35.0106 84.9852 32.0898 84.37 29.5916C83.7414 27.0391 82.7626 24.5613 81.4304 22.2858C78.6203 17.4711 74.3227 13.6793 69.263 11.331C67.7543 10.6311 66.1881 10.0721 64.5589 9.6784C63.8026 9.50753 63.0462 9.33665 62.2844 9.19017C61.7421 9.0933 61.151 8.9854 60.5867 8.98613C60.5254 7.89526 60.7924 6.82727 61.4796 5.82857C64.3127 1.80153 69.5586 6.73066 71.8818 8.81977C77.0742 13.5317 81.9479 18.6331 86.4815 23.9911C86.557 24.1108 86.6326 24.2304 86.7026 24.3745C87.1716 25.2497 87.6351 26.1494 88.0498 27.038C88.9869 29.0191 89.7612 31.0404 90.3615 33.1505C90.9594 35.1576 91.3944 37.2048 91.6909 39.2976C91.8945 40.7797 92.014 42.294 92.1634 43.7894C89.571 41.8703 87.0086 39.9322 84.517 37.9076L84.5713 37.8943ZM106.012 53.4316C101.784 50.5788 97.5732 47.6529 93.4084 44.6348C93.8701 40.6618 92.9466 36.3502 91.8231 32.5833C91.4557 31.3719 91.0339 30.174 90.5823 28.9949C90.72 29.1799 90.8821 29.3704 91.0198 29.5554C96.8778 37.1102 102.178 45.2056 106.714 53.6159C106.47 53.5607 106.226 53.5056 105.988 53.4261L106.012 53.4316ZM44.9495 36.4306C35.78 32.41 26.9585 27.4167 19.505 20.681C17.6714 19.0359 15.9684 17.2664 14.3362 15.4103C13.5579 14.5421 12.7474 13.5897 12.0564 12.5617C14.0579 12.7831 16.0239 13.0478 17.9537 13.5863C20.244 14.232 22.4603 15.0917 24.5836 16.1356C28.9468 18.2753 32.9384 21.1517 36.7041 24.2334C43.3266 29.653 49.276 35.8951 56.1929 40.9196C52.3806 39.5198 48.6036 38.0767 44.8952 36.4439L44.9495 36.4306ZM59.7448 41.5426C55.809 38.9866 52.2086 35.9678 48.7089 32.8436C41.5309 26.4779 34.6339 19.6627 25.9949 15.2236C21.605 12.9752 16.4728 11.1747 11.4529 11.374C11.1216 10.6837 10.8691 9.98555 10.785 9.22289C10.7692 9.06548 10.7779 8.91358 10.7921 8.73728C12.7747 8.92875 14.7769 8.91953 16.7485 9.15981C18.8963 9.41428 21.0111 9.81513 23.0983 10.338C27.2239 11.3726 31.2149 12.8897 34.9847 14.8185C42.6163 18.7223 49.4064 24.3081 54.6404 31.1064C56.1285 33.0325 57.4914 35.0586 58.6859 37.1491C59.6782 38.8863 60.5453 40.7234 61.4235 42.5116C60.8576 42.1787 60.2918 41.8457 59.7314 41.4883L59.7448 41.5426ZM62.5418 43.1233C61.2617 39.1415 58.9553 35.3893 56.5418 31.9976C53.9906 28.4209 51.0284 25.1874 47.7342 22.2891C41.1267 16.4625 33.2307 12.1399 24.7528 9.71167C22.4137 9.055 20.0227 8.5148 17.612 8.1753C15.4508 7.86654 13.1377 7.54908 10.9315 7.66611C11.4008 6.15659 12.7586 5.02733 14.3367 4.51198C16.9388 3.66383 19.7028 4.59602 22.1001 5.67613C26.8891 7.86076 31.4781 10.59 35.8766 13.4814C40.1886 16.3019 44.3423 19.3687 48.3079 22.7008C52.3167 26.0682 56.1241 29.6466 59.7001 33.4548C63.2816 37.2386 66.5419 41.3088 69.8675 45.3169C69.9674 45.442 70.0674 45.5672 70.1673 45.6924C67.6063 44.883 65.0564 44.0248 62.5308 43.1721L62.5418 43.1233ZM10.6932 61.3866C14.2982 59.2777 18.0999 57.5466 22.0117 56.1225C20.3734 59.8553 17.7467 63.0827 14.3282 65.3876C12.4816 66.6372 10.3919 67.6011 8.2274 68.2148C6.50291 68.6971 4.79577 68.8755 3.04534 69.0186C4.28612 65.6832 7.71089 63.1233 10.6932 61.3866ZM2.64296 70.7996C2.66817 70.5745 2.69337 70.3494 2.74849 70.1055C4.7476 70.2237 6.88134 69.8596 8.76876 69.3372C11.0119 68.7157 13.1505 67.7628 15.1057 66.4864C19.1302 63.8825 22.2317 59.9161 23.9078 55.4482C30.1281 53.3403 36.5955 51.9551 43.088 51.1396C43.3541 51.0972 43.6146 51.0791 43.8751 51.061C43.3092 51.523 42.7377 52.0093 42.1962 52.4767C40.7486 53.6627 39.2956 54.873 37.848 56.0589C34.8876 58.493 31.9328 60.9026 28.9779 63.3122C24.0749 67.3075 19.0341 71.9128 12.5518 72.9101C9.06897 73.4567 5.53043 72.888 2.64296 70.7996ZM16.7202 77.9548C12.2961 78.4682 4.27672 79.1182 2.83705 73.4591C2.7757 73.1632 2.70883 72.8916 2.67187 72.6012C7.71179 75.9452 14.531 74.8189 19.6141 72.0695C22.6177 70.4658 25.2758 68.3482 27.8962 66.1707C30.8975 63.669 33.8665 61.083 36.849 58.5514L41.9866 54.1988C43.2547 53.1262 44.6447 52.0811 45.8373 50.8889C50.9044 50.3669 55.9786 50.1541 61.0873 50.1287C60.253 50.53 59.4187 50.9314 58.6521 51.3736C55.7925 52.9072 53.1053 54.8132 50.5424 56.8498C45.2261 61.0851 40.6016 66.1178 35.3042 70.3831C33.0515 72.182 30.6988 73.8558 28.2139 75.3202C24.5114 76.6122 20.6799 77.5672 16.758 78.0146L16.7202 77.9548ZM47.6899 65.6165C43.1711 68.3652 38.4736 70.9965 33.6015 73.1525C36.7209 71.0365 39.6191 68.5371 42.4142 66.0401C47.3157 61.7111 52.1314 57.0806 57.808 53.7472C59.4011 52.825 61.0564 51.9681 62.7463 51.2985C63.8467 50.8547 64.9738 50.5196 66.0875 50.1301C68.7706 50.1721 71.4536 50.2141 74.1257 50.3049C64.8214 54.4855 56.3686 60.3458 47.6655 65.611L47.6899 65.6165ZM68.3744 66.3406C73.4182 63.9926 78.6987 62.1853 84.0996 60.8668C83.0855 64.5611 79.3255 66.7889 75.76 67.7014C73.6963 68.2096 71.5956 68.4274 69.4894 68.6696C67.7036 68.8559 65.8068 68.9659 64.0177 69.2797C65.2079 67.9844 66.8443 67.0975 68.3933 66.3705L68.3744 66.3406ZM63.1786 70.2697C65.5036 70.3078 67.8679 69.9444 70.1504 69.7164C72.536 69.4861 74.9759 69.2424 77.271 68.5044C81.079 67.3132 84.7485 64.5778 85.5117 60.5191C87.9744 59.9472 90.4639 59.4839 92.9747 59.1536C93.5311 59.0742 94.0821 59.0191 94.633 58.9641C93.4299 63.1543 90.36 66.6406 86.7054 68.969C82.1835 71.8452 76.9384 72.8143 71.6533 72.8255C68.6255 72.8338 65.6206 72.5139 62.618 72.2971C62.6205 71.6053 62.7748 70.9222 63.1542 70.2642L63.1786 70.2697ZM75.7905 76.7604C73.8149 76.8783 71.826 76.9418 69.8403 76.8778C67.6783 76.7997 65.3108 76.4956 63.7322 74.8568C63.2159 74.3042 62.8925 73.6926 62.7266 73.0653C72.9943 74.9491 85.7029 73.9738 92.8331 65.4555C94.4515 63.5133 95.5827 61.2301 96.2126 58.7825C99.8874 58.4075 103.586 58.2686 107.259 58.3548C110.265 58.4441 113.256 58.7096 116.231 59.0484C116.928 59.2571 117.649 59.4712 118.345 59.6799C106.413 69.7032 91.3262 75.7571 75.766 76.7549L75.7905 76.7604ZM113.776 26.6702C117.45 28.1157 120.986 30.1711 123.389 33.381C124.629 35.0457 125.468 37.0048 125.855 39.041C126.036 40.0563 126.089 41.0685 125.985 42.0963C125.934 42.5465 125.83 43.0101 125.725 43.4736C121.332 38.1731 117.315 32.5728 113.782 26.6458L113.776 26.6702ZM128.93 47.2235C128.194 46.3908 127.465 45.5336 126.735 44.6764C127.653 43.1142 127.617 40.7727 127.422 39.1387C127.159 36.8995 126.26 34.7476 124.992 32.8711C122.19 28.6994 117.522 26.2087 112.856 24.6159C112.758 24.5939 112.661 24.5718 112.582 24.5797C111.792 23.1959 111.013 21.7634 110.277 20.3663C115.204 21.1461 119.879 23.3818 123.513 26.8185C127.439 30.552 129.961 35.5068 130.781 40.8463C131.216 43.6884 130.981 46.4304 130.797 49.2866C130.156 48.6034 129.54 47.9257 128.905 47.218L128.93 47.2235ZM131.581 50.1305C131.581 50.1305 131.641 50.0927 131.652 50.0439C132.618 47.4672 132.605 44.4638 132.318 41.7578C132.03 38.9488 131.226 36.1515 130.063 33.5809C127.65 28.3687 123.482 24.1189 118.38 21.5045C115.598 20.0812 112.574 19.1671 109.447 18.8196C108.431 16.8464 107.305 14.5661 106.724 12.2553C107.199 12.3112 107.674 12.3672 108.148 12.4231C109.116 12.5649 110.098 12.761 111.074 12.9814C112.922 13.4248 114.751 14.0688 116.504 14.8238C119.979 16.3526 123.214 18.4938 125.956 21.1134C131.521 26.4479 134.859 33.69 135.543 41.3324C135.731 43.452 135.702 45.625 135.477 47.754C135.275 49.5547 134.805 51.2949 134.452 53.087C133.495 52.1015 132.508 51.1348 131.581 50.1305ZM135.365 54.037C136.093 52.4063 136.401 50.4757 136.646 48.7104C136.916 46.72 137.01 44.7153 136.927 42.6965C136.74 38.7565 135.924 34.8794 134.42 31.206C131.381 23.7751 125.558 17.7668 118.389 14.1983C116.382 13.2064 114.258 12.3931 112.103 11.8293C110.387 11.3648 108.336 10.7986 106.48 10.8409C106.323 9.83111 106.343 8.8355 106.509 7.87294C110.899 8.76203 115.097 10.0438 119.053 12.1685C123.082 14.3098 126.762 17.0901 129.914 20.3921C136.131 26.9254 139.983 35.4119 141.013 44.3632C141.579 49.2351 141.025 53.9566 140.327 58.7481C138.653 57.1904 137.009 55.6137 135.371 54.0126L135.365 54.037ZM151.777 68.5664C148.095 65.683 144.53 62.6209 141.065 59.4534C142.57 55.1775 142.758 50.3733 142.437 45.8902C142.095 41.2741 141.026 36.6988 139.248 32.4249C135.689 23.774 129.176 16.5072 121.072 11.8555C116.738 9.36322 111.815 7.43043 106.817 6.73725C107.08 6.02735 107.465 5.34503 108.021 4.70128C111.573 0.55469 118.113 3.9555 121.55 6.45007C126.042 9.72159 129.453 14.2617 132.404 18.9033C135.469 23.7244 138.23 28.7587 140.683 33.9032C143.131 39.0721 145.291 44.381 147.144 49.8001C148.991 55.2436 150.399 60.8184 151.776 66.4122C151.958 67.1969 152.164 67.9871 152.346 68.7719C152.156 68.7034 151.991 68.6404 151.801 68.5719L151.777 68.5664ZM109.544 83.54C111.967 82.0103 114.503 80.66 117.109 79.4537C116.159 81.1623 114.778 82.6198 113.071 83.5932C111.22 84.6366 109.238 85.0094 107.211 85.0131C108.149 84.3789 109.006 83.88 109.544 83.54ZM104.624 87.0442C105.021 86.6468 105.462 86.2848 105.927 85.9283C108.503 86.5614 111.408 85.9612 113.697 84.6833C116.105 83.3299 117.979 81.1633 119.019 78.6031C121.633 77.4756 124.336 76.522 127.055 75.7258C126.273 80.3189 123.421 84.5467 119.321 86.8003C114.755 89.3074 109.291 89.2013 104.624 87.0442ZM106.64 90.0384C105.9 89.7944 105.171 89.5015 104.443 89.2086C104.069 89.0472 103.695 88.8858 103.316 88.7489C103.501 88.3805 103.766 88.0043 104.079 87.6392C108.852 90.4613 115.128 90.4943 120.026 87.8826C124.755 85.3355 127.995 80.5285 128.706 75.227C129.743 74.9485 130.775 74.6944 131.802 74.4647C132.478 74.3097 133.118 74.198 133.789 74.0674C133.831 75.1284 133.904 76.1705 133.764 77.2416C133.599 78.5379 133.24 79.79 132.709 81.0036C131.667 83.4607 129.988 85.6713 127.939 87.3625C123.4 91.1068 117.349 92.1246 111.644 91.2715C109.957 91.0187 108.285 90.5896 106.64 90.0384ZM135.739 87.2272C129.146 90.5329 121.941 92.5721 114.476 93.0396C112.549 93.1684 110.62 93.1942 108.724 93.0736C107.18 92.9813 105.499 92.7041 104.216 91.7988C103.334 91.1635 103.003 90.4733 103.035 89.7625C103.928 90.349 105.107 90.6923 105.988 90.9938C107.438 91.5009 108.91 91.9103 110.409 92.1978C113.505 92.7947 116.736 92.9092 119.842 92.3287C125.624 91.2503 130.822 87.6548 133.567 82.4283C134.87 79.9532 135.904 76.6225 135.372 73.7583C136.599 73.5483 137.809 73.4115 139.044 73.2802C139.417 74.4671 139.825 75.6107 139.946 76.8944C140.057 78.33 139.927 79.8136 139.515 81.1823C139.115 82.5021 138.5 83.748 137.706 84.8765C137.295 85.4502 136.845 85.9641 136.371 86.4725C136.164 86.7078 135.982 86.9486 135.769 87.2083L135.739 87.2272ZM138.599 85.6936C139.536 84.495 140.263 83.0949 140.721 81.6342C141.185 80.1491 141.361 78.5734 141.277 77.0158C141.2 75.7675 140.986 74.3343 140.461 73.1387C144.863 72.7228 149.274 72.7194 153.706 73.0796C149.429 78.165 144.313 82.4201 138.623 85.6991L138.599 85.6936ZM355.449 80.8857C362.737 83.0194 369.346 86.7949 375.421 91.3471C375.19 91.3463 374.935 91.34 374.71 91.3148C373.677 91.2352 372.636 91.0769 371.6 90.8941C369.363 90.4657 367.198 89.7201 365.131 88.766C361.139 86.9152 357.641 84.1246 354.869 80.729C355.064 80.7731 355.259 80.8172 355.454 80.8613L355.449 80.8857ZM353.928 80.4652C353.817 80.6195 353.767 80.839 353.929 81.0295C356.656 84.851 360.359 87.8674 364.598 89.8765C366.703 90.8904 368.947 91.6282 371.251 92.0975C372.373 92.3511 373.493 92.5015 374.63 92.5788C375.433 92.6576 376.357 92.7639 377.218 92.7018C379.003 94.1054 380.699 95.5656 382.39 97.0501C382.365 97.0446 382.341 97.0391 382.316 97.0336C371.306 97.9823 360.19 93.4964 353.246 84.8498C351.922 83.2173 350.783 81.4471 349.813 79.6124C351.201 79.8235 352.598 80.1133 353.953 80.4707L353.928 80.4652ZM353.874 106.814C350.878 104.522 347.91 102.108 345.269 99.3827C349.361 99.2045 353.67 99.7677 357.045 102.197C358.853 103.503 360.254 105.358 361.27 107.331C362.248 109.245 362.756 111.309 363.458 113.313C360.141 111.307 356.936 109.147 353.849 106.809L353.874 106.814ZM369.341 116.668C367.67 115.778 366.035 114.844 364.405 113.886C364.471 111.439 363.416 108.842 362.312 106.695C361.207 104.548 359.724 102.597 357.787 101.185C353.868 98.3251 348.845 97.857 344.126 98.2012C343.204 97.1724 342.318 96.1003 341.517 94.996C340.658 93.8019 339.662 92.1923 338.876 90.4504C351.704 91.7844 363.284 99.3241 369.509 110.706C370.851 113.163 371.93 115.766 372.81 118.452C371.632 117.878 370.478 117.31 369.33 116.717L369.341 116.668ZM373.981 118.947C371.103 106.373 361.334 96.0372 349.408 91.3938C345.851 90.0003 342.088 89.1758 338.263 88.8503C337.815 87.5437 337.578 86.2081 337.659 84.9441C339.504 85.5149 341.407 85.9449 343.247 86.5401C345.209 87.1629 347.125 87.8777 348.994 88.6847C352.825 90.345 356.494 92.3792 359.964 94.7274C366.792 99.3474 372.721 105.226 377.421 112.006C379.804 115.417 381.842 119.108 383.549 122.904C380.3 121.734 377.109 120.424 373.975 118.972L373.981 118.947ZM386.124 123.768C385.622 123.603 385.102 123.409 384.601 123.244C378.611 107.762 365.991 95.0633 350.99 88.1355C348.832 87.1349 346.621 86.2508 344.377 85.5131C342.255 84.8029 340.055 84.1006 337.839 83.8052C338.126 82.5365 338.816 81.4103 340.113 80.5494C342.044 79.2675 344.589 79.1246 346.819 79.2437C347.348 79.2862 347.852 79.3233 348.376 79.3903C353.325 88.586 362.211 95.3376 372.529 97.3355C375.796 97.971 379.125 98.1076 382.43 97.7774C382.667 97.7538 382.765 97.5452 382.73 97.3579C383.796 98.3167 384.886 99.2809 385.922 100.259C394.734 108.583 402.715 117.977 412.41 125.347C413.176 125.931 413.953 126.465 414.759 126.981C409.677 127.115 404.582 127.195 399.487 127.274C394.997 126.26 390.514 125.221 386.099 123.762L386.124 123.768ZM364.07 136.71C367.448 135.602 370.873 134.632 374.281 133.735C374.281 133.735 374.281 133.735 374.276 133.759C373.921 134.192 373.543 134.619 373.145 135.017C372.345 135.836 371.458 136.584 370.552 137.303C368.637 138.742 366.508 139.877 364.27 140.704C362.086 141.519 359.743 142.015 357.422 142.183C356.223 142.271 355.045 142.262 353.836 142.168C353.027 142.114 352.222 141.932 351.395 141.847C355.41 139.626 359.878 138.122 364.064 136.735L364.07 136.71ZM350.221 142.505C352.331 143.495 355.236 143.459 357.497 143.329C359.939 143.188 362.361 142.684 364.673 141.873C366.984 141.061 369.172 139.889 371.161 138.466C372.17 137.745 373.122 136.935 374.012 136.059C374.707 135.369 376.083 134.27 376.212 133.248C377.412 132.929 378.612 132.61 379.832 132.322C381.407 131.934 382.995 131.6 384.583 131.267C384.212 131.773 383.836 132.303 383.422 132.774C382.507 133.875 381.505 134.905 380.465 135.875C378.355 137.835 376.04 139.569 373.512 140.998C368.246 143.988 362.239 145.605 356.192 145.701C353.08 145.741 350.078 145.294 347.049 144.738C348.051 143.938 349.09 143.199 350.191 142.524L350.221 142.505ZM361.618 151.081C357.64 152.003 353.62 152.659 349.532 153.043C347.698 153.218 345.678 153.531 343.832 153.191C343.124 153.031 342.311 152.771 341.985 152.056C341.495 151.048 342.305 149.846 342.87 149.05C343.281 148.477 343.731 147.963 344.18 147.449C345.642 148.241 347.293 148.768 348.881 149.229C350.762 149.756 352.676 150.138 354.629 150.348C358.529 150.793 362.518 150.617 366.389 149.825C364.798 150.286 363.212 150.723 361.612 151.105L361.618 151.081ZM395.25 129.112C395.893 129.104 396.561 129.101 397.204 129.092C397.41 129.087 397.592 129.077 397.798 129.072C398.14 129.15 398.506 129.232 398.847 129.309C399.926 129.528 400.997 129.667 402.069 129.806C394.257 136.914 385.194 142.637 375.437 146.664C379.229 144.751 382.697 142.226 385.654 139.125C388.279 136.359 390.428 133.203 392.104 129.76C393.149 129.561 394.2 129.337 395.245 129.137L395.25 129.112ZM377.565 144.17C371.213 148.222 363.724 150.044 356.219 149.553C354.049 149.396 351.893 149.063 349.782 148.535C348.03 148.114 346.383 147.459 344.69 146.897C345.158 146.413 345.626 145.929 346.138 145.481C349.024 146.44 352.175 146.793 355.192 146.834C358.361 146.883 361.539 146.55 364.629 145.812C370.483 144.416 375.965 141.603 380.513 137.707C381.721 136.672 382.872 135.547 383.962 134.358C384.956 133.249 386.04 132.083 386.823 130.773C388.007 130.527 389.161 130.301 390.339 130.08C387.405 135.802 382.96 140.722 377.541 144.164L377.565 144.17ZM305.415 83.9676C309.862 87.6649 313.936 91.7652 317.784 96.0708C317.865 96.166 317.946 96.2613 318.027 96.3565C314.264 94.9677 310.809 93.0076 307.81 90.2785C304.792 87.5195 302.451 84.1444 300.891 80.3813C302.447 81.5534 303.943 82.7632 305.409 83.992L305.415 83.9676ZM299.243 79.1627C302.363 87.7144 309.993 95.2592 318.962 97.4396C321.119 99.927 323.185 102.471 325.216 105.058C318.763 103.882 312.695 101.46 307.38 97.5154C302.355 93.7645 298.322 88.8017 295.626 83.1409C294.39 80.5537 293.485 77.8619 292.803 75.0921C295.021 76.2856 297.17 77.6687 299.243 79.1627ZM277.995 90.697C277.306 89.7721 276.596 88.7142 275.927 87.5887C275.976 87.5997 276.019 87.6351 276.038 87.665C276.636 88.0822 277.229 88.5238 277.786 89.0087C278.974 89.995 280.071 91.038 281.093 92.1919C282.077 93.2861 282.965 94.4612 283.769 95.6687C284.209 96.3322 284.644 97.0202 285.024 97.7215C285.175 97.9607 285.296 98.2189 285.442 98.4826C282.712 96.1479 280.136 93.5912 277.97 90.6915L277.995 90.697ZM291.02 102.846C289.57 101.775 288.15 100.684 286.74 99.5453C286.781 99.4776 286.827 99.3855 286.801 99.2769C286.735 98.5441 286.35 97.8672 286.032 97.2312C285.657 96.5055 285.253 95.7987 284.843 95.1163C284.012 93.8002 283.091 92.5408 282.075 91.3625C281.078 90.2141 279.991 89.1223 278.834 88.1171C278.209 87.5913 277.579 87.0899 276.948 86.5884C276.356 86.1468 275.691 85.4581 274.959 85.2927C274.91 85.2817 274.837 85.2651 274.788 85.2541C274.026 83.5178 273.512 81.7091 273.545 79.9728C276.517 80.4391 279.134 81.3382 281.619 83.0535C284.06 84.7334 286.136 86.8948 287.764 89.3396C290.792 93.8703 292.29 99.1579 293.375 104.455C292.604 103.896 291.803 103.356 291.031 102.797L291.02 102.846ZM294.314 105.18C293.687 99.2171 291.974 93.2911 288.584 88.3197C285.269 83.4679 279.739 79.1156 273.724 78.5003C273.983 77.3536 274.467 76.2321 275.336 75.2232C275.679 74.8391 276.036 74.5094 276.417 74.1852C277.489 74.8889 278.618 75.4518 279.69 76.1555C280.916 76.971 282.107 77.8299 283.232 78.7508C285.507 80.5983 287.611 82.6378 289.489 84.8827C293.225 89.3426 296.023 94.4368 297.908 99.9401C298.897 102.83 299.602 105.836 299.999 108.849C298.085 107.673 296.187 106.424 294.32 105.155L294.314 105.18ZM307.046 112.954C304.92 111.807 302.806 110.612 300.756 109.354C299.897 97.4918 293.882 86.2086 284.937 78.4693C283.693 77.3932 282.383 76.3794 281.027 75.4576C279.961 74.7294 278.857 73.9414 277.684 73.3431C281.561 71.1674 286.717 72.1785 290.612 74.0073C290.869 74.1167 291.116 74.275 291.373 74.3844C293.806 86.8839 303.049 97.8447 314.643 102.823C318.173 104.339 321.929 105.418 325.773 105.774C330.356 111.707 334.683 117.865 339.051 123.955C339.421 124.474 339.796 124.969 340.172 125.464C328.654 122.76 317.472 118.566 307.041 112.979L307.046 112.954ZM193.8 121.603C195.582 120.185 197.45 118.838 199.37 117.605C201.08 116.504 202.853 115.468 204.658 114.517C203.984 117.16 202.394 119.544 200.098 121.077C198.712 121.995 197.117 122.583 195.453 122.797C194.631 122.919 193.781 122.932 192.949 122.872C192.748 122.853 192.523 122.827 192.322 122.808C192.809 122.354 193.31 121.954 193.781 121.573L193.8 121.603ZM191.5 123.725C192.79 124.144 194.366 124.09 195.577 123.953C197.392 123.748 199.174 123.125 200.73 122.143C203.636 120.287 205.598 117.165 206.188 113.76C209.278 112.227 212.495 110.928 215.803 109.906C214.385 115.048 211.045 119.729 206.553 122.587C204.1 124.135 201.357 125.157 198.503 125.64C195.838 126.089 193.266 125.893 190.619 125.577C190.72 124.907 191.045 124.263 191.5 123.725ZM190.648 126.814C190.602 126.676 190.611 126.524 190.589 126.391C194.774 127.619 199.698 126.936 203.656 125.42C208.258 123.664 212.242 120.333 214.804 116.142C216.073 114.044 216.969 111.785 217.528 109.424C220.042 108.735 222.622 108.215 225.206 107.902C225.599 107.862 225.968 107.817 226.362 107.778C224.921 113.248 221.818 118.24 217.565 121.972C212.829 126.133 206.706 128.494 200.413 128.764C197.182 128.88 194.074 128.332 190.946 127.651C190.825 127.393 190.704 127.135 190.612 126.858L190.648 126.814ZM200.743 132.07C198.56 131.859 196.275 131.419 194.287 130.457C193.409 130.028 192.491 129.436 191.789 128.688C194.222 129.494 196.815 129.823 199.351 129.832C202.599 129.874 205.84 129.375 208.936 128.382C215.243 126.345 220.722 122.07 224.291 116.491C226.037 113.757 227.279 110.755 228.063 107.624C233.455 107.252 238.88 107.76 244.092 109.091C241.62 109.251 239.27 110.233 237.389 111.859C235.378 113.61 233.737 115.881 232.264 118.087C230.663 120.52 229.314 123.087 228.241 125.794C219.52 129.209 210.244 133.037 200.743 132.07ZM255.682 115.454C249.831 117.517 244.031 119.694 238.219 121.92C238.381 121.546 238.537 121.196 238.747 120.834C239.244 119.997 239.832 119.207 240.521 118.542C241.899 117.212 243.587 116.209 245.388 115.615C247.441 114.925 249.634 114.754 251.785 114.881C252.824 114.936 253.865 115.095 254.877 115.272C255.121 115.327 255.389 115.388 255.657 115.448L255.682 115.454ZM256.367 114.121C255.88 114.011 255.399 113.979 255.009 113.891C253.827 113.675 252.628 113.533 251.432 113.493C249.142 113.412 246.83 113.659 244.651 114.449C242.725 115.142 240.931 116.275 239.515 117.776C238.371 118.979 237.136 120.7 236.926 122.422C234.514 123.339 232.12 124.286 229.732 125.208C230.779 123.188 231.917 121.214 233.19 119.322C234.57 117.3 236.04 115.222 237.896 113.589C239.622 112.082 241.595 111.066 243.877 110.838C244.9 110.736 245.988 110.802 246.988 111.028C248.013 111.259 249.01 111.843 250.043 111.923C250.444 111.962 250.698 111.635 250.696 111.301C252.639 112.125 254.559 113.046 256.367 114.121ZM307.223 126.021C309.432 125.776 311.722 125.627 313.916 125.225C314.263 125.278 314.591 125.301 314.938 125.354C314.894 125.549 314.801 125.733 314.733 125.923C314.489 126.432 314.173 126.925 313.77 127.346C312.983 128.22 311.887 128.87 310.733 129.096C309.585 129.299 308.373 129.102 307.336 128.585C306.783 128.307 306.266 127.985 305.825 127.552C305.403 127.149 305.071 126.689 304.614 126.329C305.485 126.218 306.357 126.107 307.247 126.027L307.223 126.021ZM304.142 126.376C304.142 126.376 304.055 126.536 304.087 126.62C304.245 127.964 305.69 129.06 306.795 129.617C308.084 130.267 309.589 130.53 311.033 130.267C312.453 129.998 313.752 129.24 314.706 128.199C315.316 127.542 316.063 126.505 316.264 125.499C317.512 125.653 318.759 125.807 320.007 125.96C318.712 129.309 315.767 131.9 312.049 132.24C307.834 132.621 304.455 129.986 302.321 126.606C302.926 126.538 303.542 126.42 304.147 126.352L304.142 126.376ZM270.673 136.611C274.507 134.17 278.681 132.266 282.986 130.803C285.1 130.075 287.234 129.48 289.401 128.97C287.187 131.957 284.398 134.43 280.974 135.964C277.357 137.557 273.283 137.996 269.34 137.516C269.794 137.208 270.219 136.919 270.667 136.636L270.673 136.611ZM265.12 140.87C265.12 140.87 265.281 140.727 265.352 140.641C266.332 139.708 267.393 138.871 268.492 138.093C277.063 140.337 286.93 136.387 291.377 128.621C291.388 128.572 291.399 128.524 291.41 128.475C292.92 128.149 294.448 127.853 295.947 127.577C295.775 130.153 294.861 132.383 293.21 134.472C291.539 136.53 289.393 138.199 287.109 139.453C282.627 141.928 277.501 143.052 272.399 142.592C270.964 142.473 269.557 142.232 268.177 141.869C267.134 141.607 266.129 141.175 265.102 140.84L265.12 140.87ZM273.654 152.132C271.736 152.109 269.756 152.021 267.894 151.523C267.916 151.426 267.913 151.323 267.887 151.214C267.871 151.057 267.874 150.929 267.883 150.777C267.954 150.46 268.099 150.159 268.306 149.924C268.832 149.299 269.641 149.123 270.433 149.251C271.303 149.37 272.145 149.843 272.784 150.423C273.317 150.902 273.627 151.46 273.781 152.136C273.733 152.125 273.678 152.138 273.63 152.127L273.654 152.132ZM309.134 139.352C309.6 139.559 310.025 139.835 310.456 140.086C306.952 142.654 303.198 144.857 299.233 146.628C298.38 143.82 299.465 140.834 302.14 139.438C303.501 138.746 305.024 138.474 306.551 138.64C307.452 138.741 308.319 138.988 309.14 139.327L309.134 139.352ZM313.037 138.079C312.531 138.504 312.05 138.933 311.525 139.327C310.894 138.826 310.025 138.476 309.345 138.194C308.426 137.832 307.431 137.582 306.452 137.489C304.665 137.342 302.859 137.729 301.315 138.662C298.61 140.307 296.953 144.01 298.518 146.954C297.293 147.498 296.054 147.987 294.796 148.447C294.001 143.908 296.337 139.358 300.471 137.292C304.545 135.263 309.236 135.836 313.037 138.079ZM324.042 126.487C321.166 130.479 317.794 134.051 314.05 137.231C309.675 134.576 304.221 133.857 299.6 136.377C295.213 138.771 292.628 143.854 293.995 148.702C291.184 149.682 288.308 150.494 285.384 151.064C281.898 151.738 278.331 152.087 274.758 152.126C274.78 151.464 274.497 150.784 274.103 150.259C273.552 149.519 272.786 148.936 271.976 148.548C270.338 147.742 268.156 147.864 267.108 149.551C266.863 149.957 266.611 150.618 266.641 151.164C266.617 151.158 266.568 151.147 266.544 151.142C264.664 150.383 262.873 148.774 262.504 146.664C262.169 144.742 263.179 142.996 264.445 141.59C266.476 142.818 269.127 143.34 271.391 143.646C274.1 144.027 276.884 143.964 279.593 143.55C285.096 142.691 290.444 140.129 294.17 135.894C296.205 133.584 297.828 130.489 297.641 127.344C298.015 127.275 298.39 127.205 298.759 127.16C299.69 127.012 300.635 126.917 301.566 126.769C302.69 131.1 307.697 133.796 311.974 133.48C316.118 133.185 319.919 130.095 321.267 126.168C322.192 126.275 323.112 126.405 324.061 126.517L324.042 126.487ZM246.191 95.4873C243.7 94.2577 241.553 92.1827 240.428 89.6719C239.321 87.191 239.28 84.3096 240.114 81.7541C242.304 86.2492 244.32 90.8332 246.186 95.5117L246.191 95.4873ZM237.449 76.4081C238.058 77.5714 238.613 78.7481 239.192 79.9304C237.724 83.1375 237.584 86.824 239.005 90.0684C240.426 93.3128 243.236 95.7428 246.624 96.6365C247.307 98.3807 247.99 100.125 248.619 101.882C248.009 101.745 247.347 101.723 246.805 101.626C245.609 101.356 244.46 100.994 243.339 100.51C241.077 99.5117 239.004 98.0177 237.366 96.186C233.929 92.3322 232.599 86.9801 233.71 81.9485C234.256 79.5331 235.346 77.3177 236.856 75.4022C237.034 75.7501 237.242 76.0791 237.419 76.427L237.449 76.4081ZM212.095 67.5256C212.273 67.6429 212.476 67.7658 212.649 67.9074C213.41 68.5151 214.134 69.1661 214.788 69.9036C216.064 71.2945 217.119 72.8664 217.941 74.565C219.425 77.6441 219.997 80.9018 219.903 84.2656C216.533 79.0935 213.886 73.4437 212.119 67.5312L212.095 67.5256ZM220.664 85.4377C221.451 81.615 220.684 77.5183 219.009 74.037C218.136 72.2243 216.987 70.5029 215.624 69.0411C214.492 67.8108 213.11 66.5498 211.61 65.6981C211.449 65.0464 211.235 64.408 211.099 63.7618C210.668 61.9209 210.328 60.0232 210.06 58.1421C215.056 60.8864 219.189 65.1795 221.667 70.3294C223.081 73.2645 223.925 76.4554 224.241 79.7067C224.553 82.9825 224.042 86.1495 223.648 89.3685C222.63 88.0871 221.642 86.7868 220.719 85.4243L220.664 85.4377ZM224.98 91.0798C224.656 90.6988 224.356 90.3233 224.037 89.918C224.121 89.8857 224.211 89.829 224.258 89.737C225.33 87.261 225.576 84.4701 225.545 81.7705C225.519 79.0465 225.13 76.3429 224.355 73.7574C222.853 68.8279 220.028 64.42 216.247 60.9503C214.313 59.18 212.132 57.7126 209.787 56.5161C209.471 53.829 209.287 51.1207 209.335 48.4133C209.352 47.3145 209.357 45.9309 210.096 45.0463C220.641 55.1218 230.725 67.5805 230.245 82.9863C230.133 86.8846 229.111 90.5002 227.78 94.1228C226.799 93.1318 225.847 92.1219 224.931 91.0687L224.98 91.0798ZM228.413 94.7274C230.317 91.747 231.17 88.1959 231.498 84.7054C231.855 80.9653 231.483 77.163 230.612 73.5298C228.826 65.9975 224.734 59.252 219.842 53.3257C217.221 50.1693 214.35 47.2128 211.379 44.3617C212.068 44.2611 212.8 44.4264 213.442 44.6485C215.865 45.5035 217.964 47.3368 219.699 49.1905C223.337 53.064 226.264 57.7001 229.133 62.1433C231.623 65.9884 233.904 69.9656 236.101 73.9752C232.899 78.047 231.577 83.672 232.512 88.7297C233.481 93.9747 237.005 98.4637 241.704 100.936C243.036 101.621 244.426 102.166 245.866 102.491C246.671 102.673 247.991 103.074 248.963 102.858C249.409 104.061 249.83 105.259 250.247 106.481C250.448 107.065 250.644 107.674 250.845 108.258C248.081 107.326 245.298 106.364 242.545 105.383C237.376 102.497 232.598 98.904 228.383 94.7463L228.413 94.7274ZM151.652 97.9511C155.534 95.7509 159.9 94.5834 164.258 93.7984C163.924 94.5949 163.479 95.315 162.766 95.9745C161.696 96.9637 160.408 97.6727 159.009 98.0747C157.472 98.5224 155.841 98.5899 154.238 98.5354C153.223 98.4857 152.206 98.3329 151.179 98.2289C151.328 98.1344 151.502 98.0455 151.652 97.9511ZM149.966 99.0575C151.443 99.4425 153.054 99.5757 154.53 99.6271C156.285 99.6902 158.084 99.5582 159.752 98.9862C162.221 98.1593 164.9 96.1746 165.702 93.5349C169.643 92.8869 173.633 92.4804 177.633 92.2558C176.318 94.446 174.986 96.4788 173.03 98.2164C170.918 100.073 168.463 101.518 165.768 102.32C162.822 103.219 159.706 103.387 156.686 102.909C155.127 102.66 153.606 102.239 152.149 101.653C151.046 101.199 149.998 100.501 148.877 100.017C149.215 99.6572 149.596 99.3329 149.971 99.0331L149.966 99.0575ZM147.241 103.058C147.269 102.936 147.272 102.808 147.305 102.662C147.47 101.93 147.844 101.296 148.291 100.679C148.973 101.295 149.869 101.754 150.679 102.142C151.857 102.716 153.112 103.179 154.364 103.539C156.806 104.193 159.342 104.433 161.879 104.211C166.561 103.807 171.058 101.72 174.48 98.4928C176.304 96.7764 178.129 94.5989 179.046 92.2417C179.046 92.2417 179.052 92.2173 179.057 92.1929C179.215 92.1772 179.367 92.1859 179.524 92.1702C182.962 92.0494 186.386 92.1048 189.825 92.3177C182.65 102.852 169.926 109.003 157.15 107.322C155.258 107.074 153.398 106.68 151.634 105.974C150.672 105.577 149.776 105.118 148.943 104.494C148.35 104.052 147.798 103.543 147.241 103.058ZM210.14 95.4714C196.118 105.099 178.881 110.001 161.895 109.138C159.738 109.035 157.604 108.835 155.491 108.537C153.598 108.289 151.632 108.025 149.902 107.172C148.724 106.598 147.756 105.661 147.377 104.499C148.137 105.337 149.176 105.957 150.14 106.457C151.657 107.235 153.313 107.738 154.977 108.088C158.306 108.789 161.768 108.904 165.158 108.542C171.853 107.849 178.293 105.227 183.649 101.154C186.709 98.8452 189.43 95.998 191.473 92.7414C191.55 92.6304 191.577 92.5084 191.605 92.3864C193.118 92.4976 194.651 92.6386 196.177 92.8041C200.405 93.2721 204.597 94.0139 208.767 94.8534C209.238 95.0369 209.704 95.2447 210.176 95.4281L210.14 95.4714ZM157.823 38.8526C157.337 37.4862 156.905 36.1064 156.503 34.7078C160.689 37.8588 164.096 41.9621 166.448 46.6478C167.663 49.1019 168.619 51.6773 169.22 54.3518C169.517 55.6497 169.754 56.9853 169.912 58.3288C169.988 59.0128 170.01 59.7101 170.062 60.3886C164.914 53.8916 160.647 46.6707 157.823 38.8526ZM174.328 65.4553C173.214 64.255 172.166 62.9924 171.118 61.7298C171.355 59.8858 171.066 57.8717 170.796 56.1181C170.443 53.9356 169.848 51.801 169.085 49.731C167.526 45.5066 165.155 41.586 162.166 38.2439C160.485 36.3768 158.584 34.6907 156.53 33.2265C156.4 33.1203 156.248 33.1116 156.115 33.1328C155.949 32.5055 155.783 31.8782 155.642 31.2564C155.358 30.0129 155.13 28.7559 154.955 27.4856C154.828 26.4569 154.732 25.1787 155.3 24.2555C166.304 32.6397 173.827 45.3145 176.484 58.8648C176.868 60.7978 177.137 62.782 177.309 64.7442C177.419 66.0767 177.419 67.4359 177.504 68.7629C176.442 67.6766 175.379 66.5904 174.328 65.4553ZM178.361 69.6233C178.499 68.2184 178.393 66.7584 178.295 65.3771C178.187 63.5834 177.976 61.792 177.687 60.0085C177.108 56.4415 176.179 52.9492 174.967 49.5726C172.525 42.7895 168.806 36.436 164.088 30.9851C161.708 28.2419 159.047 25.7175 156.223 23.4639C158.041 22.5668 160.885 23.8249 162.467 24.5413C162.865 24.7082 163.252 24.9239 163.645 25.1152C172.994 35.9461 179.494 49.0568 182.321 63.1069C182.726 65.173 183.077 67.2524 183.349 69.3397C183.47 70.3928 183.596 71.4215 183.693 72.4691C183.774 73.3592 183.662 74.3084 184.273 75.0105C184.316 75.046 184.37 75.0326 184.4 75.0137C184.859 74.3479 184.709 73.6474 184.679 72.8714C184.615 71.908 184.52 70.9635 184.426 70.019C184.237 68.1301 183.951 66.2191 183.635 64.327C182.981 60.6403 182.055 57.0206 180.906 53.4787C178.614 46.3705 175.377 39.5873 171.302 33.3329C169.894 31.1683 168.365 29.0793 166.766 27.0769C167.538 27.6358 168.279 28.2135 169.009 28.8401C173.009 32.3595 176.133 36.8091 178.936 41.3145C181.933 46.0946 184.572 51.1014 186.982 56.2105C191.535 65.9067 195.151 76.0066 198.689 86.1144C191.525 81.1622 184.612 75.7795 178.404 69.6587L178.361 69.6233Z" fill="white"/>
</svg>
